<svg width="11" height="12" viewBox="0 0 11 12" fill="none" xmlns="http://www.w3.org/2000/svg">
<g clip-path="url(#clip0_6_464)">
<path d="M9.56178 1.65341H8.52988V0.532532C8.52988 0.466599 8.50427 0.40799 8.45304 0.356708C8.40181 0.305426 8.34327 0.279785 8.2774 0.279785H8.10176C8.02857 0.279785 7.9682 0.305426 7.92063 0.356708C7.87306 0.40799 7.84927 0.466599 7.84927 0.532532V1.65341H3.7217V0.532532C3.7217 0.466599 3.69791 0.40799 3.65034 0.356708C3.60277 0.305426 3.54239 0.279785 3.46921 0.279785H3.29357C3.22038 0.279785 3.16001 0.305426 3.11244 0.356708C3.06487 0.40799 3.04108 0.466599 3.04108 0.532532V1.65341H2.00919C1.72377 1.65341 1.48043 1.75414 1.27918 1.95561C1.07792 2.15707 0.977295 2.40066 0.977295 2.68638V10.2468C0.977295 10.5325 1.07792 10.7761 1.27918 10.9776C1.48043 11.1791 1.72377 11.2798 2.00919 11.2798H9.56178C9.8472 11.2798 10.0905 11.1791 10.2918 10.9776C10.493 10.7761 10.5937 10.5325 10.5937 10.2468V2.68638C10.5937 2.40066 10.493 2.15707 10.2918 1.95561C10.0905 1.75414 9.8472 1.65341 9.56178 1.65341ZM2.00919 2.34572H9.56178C9.65692 2.34572 9.73742 2.37869 9.80329 2.44462C9.86915 2.51055 9.90208 2.59114 9.90208 2.68638V3.71935H1.66888V2.68638C1.66888 2.59114 1.70182 2.51055 1.76768 2.44462C1.83355 2.37869 1.91405 2.34572 2.00919 2.34572ZM9.56178 10.5875H2.00919C1.91405 10.5875 1.83355 10.5545 1.76768 10.4886C1.70182 10.4226 1.66888 10.3421 1.66888 10.2468V4.40066H9.90208V10.2468C9.90208 10.3421 9.86915 10.4226 9.80329 10.4886C9.73742 10.5545 9.65692 10.5875 9.56178 10.5875Z" fill="#999999"/>
</g>
<defs>
<clipPath id="clip0_6_464">
<rect width="9.62" height="11" fill="white" transform="matrix(1 0 0 -1 0.969971 11.2798)"/>
</clipPath>
</defs>
</svg>
