<svg width="38" height="36" viewBox="0 0 38 36" fill="none" xmlns="http://www.w3.org/2000/svg">
<g clip-path="url(#clip0_6_575)">
<path d="M26.6708 10.7532C26.7666 10.969 26.9165 11.1129 27.1202 11.1848C27.3239 11.2567 27.5217 11.2448 27.7134 11.1489C27.9052 11.0529 28.037 10.8971 28.1089 10.6813C28.1808 10.4655 28.1689 10.2617 28.073 10.0699C27.1861 8.27173 25.8977 6.83916 24.2079 5.77223C22.518 4.7053 20.6724 4.17183 18.6709 4.17183C16.6695 4.17183 14.8118 4.7053 13.098 5.77223C11.3842 6.83916 10.0958 8.27173 9.23292 10.0699C9.13704 10.2617 9.12505 10.4595 9.19696 10.6633C9.26887 10.8671 9.4007 11.017 9.59246 11.1129C9.68834 11.1848 9.80219 11.2208 9.93403 11.2208C10.0659 11.2208 10.1977 11.1788 10.3295 11.0949C10.4614 11.011 10.5632 10.8971 10.6351 10.7532C11.3782 9.24276 12.4748 8.02597 13.925 7.1029C15.3751 6.17982 16.9571 5.71828 18.6709 5.71828C20.3847 5.71828 21.9607 6.17383 23.3989 7.08492C24.8371 7.99601 25.9277 9.21878 26.6708 10.7532ZM32.9987 17.8022V14.3497C32.9987 11.7602 32.3396 9.35065 31.0212 7.12088C29.7508 4.93906 28.037 3.22478 25.8798 1.97802C23.6506 0.659344 21.2417 0 18.6529 0C16.0642 0 13.6553 0.659344 11.4261 1.97802C9.26887 3.22478 7.55505 4.93906 6.28466 7.12088C4.96634 9.35065 4.30718 11.7602 4.30718 14.3497V17.8022C3.1087 18.018 2.11396 18.5814 1.32297 19.4925C0.531972 20.4036 0.136475 21.4705 0.136475 22.6933V23.7363C0.136475 24.6234 0.352201 25.4386 0.783652 26.1818C1.2151 26.9251 1.80236 27.5245 2.54541 27.98C3.28847 28.4356 4.10343 28.6633 4.99031 28.6633C5.25397 28.999 5.57756 29.2627 5.96107 29.4545C6.34459 29.6464 6.75207 29.7423 7.18352 29.7423C7.97452 29.7423 8.65166 29.4605 9.21494 28.8971C9.77822 28.3337 10.0599 27.6563 10.0599 26.8651V19.5644C10.0599 18.7732 9.77822 18.0959 9.21494 17.5325C8.65166 16.969 7.97452 16.6873 7.18352 16.6873C6.7281 16.6873 6.28466 16.7952 5.85321 17.011V14.3137C5.85321 12.012 6.44046 9.86613 7.61497 7.87613C8.74154 5.95804 10.2756 4.43557 12.2171 3.30869C14.1826 2.13387 16.3219 1.54646 18.635 1.54646C20.948 1.54646 23.0993 2.13387 25.0888 3.30869C27.0063 4.43557 28.5284 5.95804 29.655 7.87613C30.8295 9.86613 31.4167 12.012 31.4167 14.3137V17.011C30.9853 16.7952 30.5538 16.6873 30.1224 16.6873C29.3074 16.6873 28.6243 16.969 28.073 17.5325C27.5217 18.0959 27.246 18.7732 27.246 19.5644V26.8651C27.246 27.6563 27.5217 28.3337 28.073 28.8971C28.6243 29.4605 29.3074 29.7423 30.1224 29.7423C30.434 29.7423 30.7576 29.6823 31.0931 29.5624C30.7576 30.4016 30.2123 31.0729 29.4572 31.5764C28.7022 32.0799 27.8812 32.3317 26.9944 32.3317H23.4708C23.303 31.7083 22.9615 31.2048 22.4461 30.8212C21.9308 30.4376 21.3495 30.2458 20.7023 30.2458H18.617C17.85 30.2697 17.1968 30.5574 16.6575 31.1089C16.1182 31.6603 15.8485 32.3257 15.8485 33.1049C15.8485 33.8841 16.1182 34.5554 16.6575 35.1189C17.1968 35.6823 17.85 35.976 18.617 36H20.7023C21.3495 36 21.9308 35.8022 22.4461 35.4066C22.9615 35.011 23.303 34.5135 23.4708 33.9141H26.9944C28.3366 33.9141 29.5411 33.5005 30.6078 32.6733C31.6744 31.8462 32.3875 30.7852 32.747 29.4905C32.8909 29.3467 32.9628 29.1668 32.9628 28.951V28.6274C34.1373 28.4835 35.126 27.962 35.929 27.0629C36.732 26.1638 37.1335 25.1029 37.1335 23.8801V22.5495C37.1335 21.3506 36.738 20.3017 35.947 19.4026C35.156 18.5035 34.1732 17.97 32.9987 17.8022ZM4.30718 19.5644V27.045C3.54015 26.8531 2.91694 26.4515 2.43755 25.8402C1.95816 25.2288 1.71846 24.5275 1.71846 23.7363V22.6933C1.71846 21.9021 1.96415 21.2008 2.45553 20.5894C2.9469 19.978 3.56412 19.5884 4.30718 19.4206V19.5644ZM7.18352 18.2697C7.54306 18.2697 7.84868 18.3956 8.10036 18.6474C8.35204 18.8991 8.47788 19.2048 8.47788 19.5644V26.8651C8.47788 27.2248 8.35204 27.5365 8.10036 27.8002C7.84868 28.0639 7.54306 28.1958 7.18352 28.1958C6.82398 28.1958 6.51237 28.0639 6.24871 27.8002C5.98504 27.5365 5.85321 27.2248 5.85321 26.8651V19.5644C5.85321 19.2048 5.98504 18.8991 6.24871 18.6474C6.51237 18.3956 6.82398 18.2697 7.18352 18.2697ZM20.7383 34.4176H18.6529C18.2934 34.4176 17.9818 34.2917 17.7181 34.04C17.4545 33.7882 17.3226 33.4825 17.3226 33.1229C17.3226 32.7632 17.4545 32.4575 17.7181 32.2058C17.9818 31.954 18.2934 31.8282 18.6529 31.8282H20.7383C21.0978 31.8282 21.4035 31.954 21.6551 32.2058C21.9068 32.4575 22.0327 32.7632 22.0327 33.1229C22.0327 33.4825 21.9068 33.7882 21.6551 34.04C21.4035 34.2917 21.0978 34.4176 20.7383 34.4176ZM31.4167 26.8651C31.4167 27.2248 31.2909 27.5365 31.0392 27.8002C30.7875 28.0639 30.4819 28.1958 30.1224 28.1958C29.7628 28.1958 29.4512 28.0639 29.1876 27.8002C28.9239 27.5365 28.7921 27.2248 28.7921 26.8651V19.5644C28.7921 19.2048 28.9239 18.8991 29.1876 18.6474C29.4512 18.3956 29.7628 18.2697 30.1224 18.2697C30.4819 18.2697 30.7875 18.3956 31.0392 18.6474C31.2909 18.8991 31.4167 19.2048 31.4167 19.5644V26.8651ZM35.5874 23.9161C35.5874 24.6833 35.3417 25.3666 34.8504 25.966C34.359 26.5654 33.7418 26.9371 32.9987 27.0809V19.3846C33.7418 19.5285 34.359 19.9001 34.8504 20.4995C35.3417 21.0989 35.5874 21.7822 35.5874 22.5495V23.9161Z" fill="#0C6BA1"/>
</g>
<defs>
<clipPath id="clip0_6_575">
<rect width="37.01" height="36" fill="white" transform="matrix(1 0 0 -1 0.129883 36)"/>
</clipPath>
</defs>
</svg>
