<svg width="34" height="34" viewBox="0 0 34 34" fill="none" xmlns="http://www.w3.org/2000/svg">
<path d="M2.83301 26.9167C2.83301 29.325 4.67467 31.1667 7.08301 31.1667H26.9163C29.3247 31.1667 31.1663 29.325 31.1663 26.9167V15.5834H2.83301V26.9167ZM26.9163 5.66671H24.083V4.25004C24.083 3.40004 23.5163 2.83337 22.6663 2.83337C21.8163 2.83337 21.2497 3.40004 21.2497 4.25004V5.66671H12.7497V4.25004C12.7497 3.40004 12.183 2.83337 11.333 2.83337C10.483 2.83337 9.91634 3.40004 9.91634 4.25004V5.66671H7.08301C4.67467 5.66671 2.83301 7.50837 2.83301 9.91671V12.75H31.1663V9.91671C31.1663 7.50837 29.3247 5.66671 26.9163 5.66671Z" fill="url(#paint0_linear_131_2501)"/>
<defs>
<linearGradient id="paint0_linear_131_2501" x1="31.4024" y1="10.8393" x2="2.95825" y2="10.8376" gradientUnits="userSpaceOnUse">
<stop stop-color="#00893B"/>
<stop offset="1" stop-color="#004165"/>
</linearGradient>
</defs>
</svg>
