<svg width="29" height="27" viewBox="0 0 29 27" fill="none" xmlns="http://www.w3.org/2000/svg">
<path d="M26.6875 26.8125H2.25C1.07594 26.8125 0.125 25.8605 0.125 24.6875V11.9375C0.125 11.9375 5.67231 14.7903 10.75 15.958V17.25C10.75 17.8376 11.2249 18.3125 11.8125 18.3125H17.125C17.7115 18.3125 18.1875 17.8376 18.1875 17.25V15.958C23.2641 14.7903 28.8125 11.9375 28.8125 11.9375V24.6875C28.8125 25.8605 27.8605 26.8125 26.6875 26.8125ZM16.0625 14.0625C16.649 14.0625 17.125 14.5374 17.125 15.125V16.1875C17.125 16.7751 16.649 17.25 16.0625 17.25H12.875C12.2874 17.25 11.8125 16.7751 11.8125 16.1875V15.125C11.8125 14.5374 12.2874 14.0625 12.875 14.0625H16.0625ZM18.1875 14.0625C18.1875 13.4749 17.7115 13 17.125 13H11.8125C11.2249 13 10.75 13.4749 10.75 14.0625V15.0145C5.67231 13.8118 0.125 10.875 0.125 10.875V6.625C0.125 5.452 1.07594 4.5 2.25 4.5H8.625V2.375C8.625 1.202 9.577 0.25 10.75 0.25H18.1875C19.3605 0.25 20.3125 1.202 20.3125 2.375V4.5H26.6875C27.8605 4.5 28.8125 5.452 28.8125 6.625V10.875C28.8125 10.875 23.2641 13.8118 18.1875 15.0145V14.0625ZM18.1875 3.4375C18.1875 2.84994 17.7115 2.375 17.125 2.375H11.8125C11.2249 2.375 10.75 2.84994 10.75 3.4375C10.75 4.024 10.75 4.5 10.75 4.5H18.1875C18.1875 4.5 18.1875 4.024 18.1875 3.4375Z" fill="url(#paint0_linear_131_2506)"/>
<defs>
<linearGradient id="paint0_linear_131_2506" x1="29.0516" y1="7.75558" x2="0.251806" y2="7.75364" gradientUnits="userSpaceOnUse">
<stop stop-color="#00893B"/>
<stop offset="1" stop-color="#004165"/>
</linearGradient>
</defs>
</svg>
