<svg width="26" height="26" viewBox="0 0 26 26" fill="none" xmlns="http://www.w3.org/2000/svg">
<g clip-path="url(#clip0_131_2509)">
<path d="M24.375 1.625H19.5C19.5 0.725156 18.7732 0 17.875 0H8.125C7.22678 0 6.5 0.725156 6.5 1.625H1.625C0.726781 1.625 0 2.35016 0 3.25V6.5C0 10.0896 2.91037 13 6.5 13C6.57638 13 6.64747 12.9793 6.72222 12.976C7.306 15.2628 9.09147 17.0515 11.375 17.6434V22.75H8.125C7.22678 22.75 6.5 23.4752 6.5 24.375V26H19.5V24.375C19.5 23.4752 18.7732 22.75 17.875 22.75H14.625V17.6434C16.9085 17.0515 18.694 15.2632 19.2778 12.9764C19.3525 12.9793 19.4236 13 19.5 13C23.0896 13 26 10.0896 26 6.5V3.25C26 2.35016 25.2732 1.625 24.375 1.625ZM3.25 6.5V4.875H6.5V9.75C4.70519 9.75 3.25 8.29319 3.25 6.5ZM22.75 6.5C22.75 8.29319 21.2948 9.75 19.5 9.75V4.875H22.75V6.5Z" fill="url(#paint0_linear_131_2509)"/>
</g>
<defs>
<linearGradient id="paint0_linear_131_2509" x1="26.2167" y1="7.34663" x2="0.114927" y2="7.34501" gradientUnits="userSpaceOnUse">
<stop stop-color="#00893B"/>
<stop offset="1" stop-color="#004165"/>
</linearGradient>
<clipPath id="clip0_131_2509">
<rect width="26" height="26" fill="white"/>
</clipPath>
</defs>
</svg>
