<svg width="10" height="12" viewBox="0 0 10 12" fill="none" xmlns="http://www.w3.org/2000/svg">
<g clip-path="url(#clip0_6_468)">
<path d="M6.80365 6.4666C6.68643 6.4666 6.56189 6.48125 6.43002 6.51055C6.35676 6.52521 6.24321 6.55817 6.08936 6.60946C5.88423 6.67539 5.71573 6.71935 5.58387 6.74132C5.36409 6.78528 5.12965 6.80726 4.88057 6.80726C4.63149 6.80726 4.39705 6.78528 4.17727 6.74132C4.0454 6.71935 3.87691 6.67539 3.67178 6.60946C3.51793 6.55817 3.40438 6.52521 3.33112 6.51055C3.19925 6.48125 3.07471 6.4666 2.95749 6.4666C2.43002 6.4666 1.9465 6.59663 1.50694 6.85671C1.06738 7.11678 0.717566 7.4666 0.457493 7.90616C0.197419 8.34572 0.0673828 8.82924 0.0673828 9.35671V10.2468C0.0673828 10.5325 0.168115 10.7761 0.369581 10.9776C0.571046 11.1791 0.814636 11.2798 1.10035 11.2798H8.66079C8.9465 11.2798 9.19009 11.1791 9.39156 10.9776C9.59302 10.7761 9.69376 10.5325 9.69376 10.2468V9.35671C9.69376 8.82924 9.56372 8.34572 9.30365 7.90616C9.04357 7.4666 8.69193 7.11678 8.2487 6.85671C7.80548 6.59663 7.32379 6.4666 6.80365 6.4666ZM9.00145 10.2468C9.00145 10.3421 8.96848 10.4226 8.90255 10.4886C8.83661 10.5545 8.75603 10.5875 8.66079 10.5875H1.10035C1.00511 10.5875 0.924526 10.5545 0.858592 10.4886C0.792658 10.4226 0.759691 10.3421 0.759691 10.2468V9.35671C0.759691 8.95378 0.85676 8.58565 1.0509 8.25231C1.24504 7.91898 1.51061 7.65341 1.8476 7.45561C2.1846 7.25781 2.55456 7.15891 2.95749 7.15891C3.06006 7.15891 3.22855 7.19554 3.46299 7.2688C3.69742 7.34206 3.89156 7.39334 4.0454 7.42264C4.30914 7.47392 4.58753 7.49957 4.88057 7.49957C5.17361 7.49957 5.452 7.47392 5.71573 7.42264C5.86225 7.39334 6.05273 7.34206 6.28716 7.2688C6.5216 7.19554 6.69376 7.15891 6.80365 7.15891C7.19925 7.15891 7.56555 7.25781 7.90255 7.45561C8.23954 7.65341 8.50694 7.91898 8.70475 8.25231C8.90255 8.58565 9.00145 8.95378 9.00145 9.35671V10.2468ZM4.88057 5.77429C5.37874 5.77429 5.83845 5.65158 6.25969 5.40616C6.68094 5.16074 7.01427 4.8274 7.25969 4.40616C7.50511 3.98491 7.62782 3.52521 7.62782 3.02704C7.62782 2.52887 7.50511 2.06916 7.25969 1.64792C7.01427 1.22667 6.68094 0.893338 6.25969 0.647917C5.83845 0.402495 5.37874 0.279785 4.88057 0.279785C4.3824 0.279785 3.92269 0.402495 3.50145 0.647917C3.0802 0.893338 2.74687 1.22667 2.50145 1.64792C2.25603 2.06916 2.13332 2.52887 2.13332 3.02704C2.13332 3.52521 2.25603 3.98491 2.50145 4.40616C2.74687 4.8274 3.0802 5.16074 3.50145 5.40616C3.92269 5.65158 4.3824 5.77429 4.88057 5.77429ZM4.88057 0.972093C5.2542 0.972093 5.59852 1.06367 5.91354 1.24682C6.22856 1.42997 6.47947 1.67905 6.66628 1.99407C6.8531 2.30909 6.9465 2.65341 6.9465 3.02704C6.9465 3.40066 6.8531 3.74499 6.66628 4.06C6.47947 4.37502 6.22856 4.62594 5.91354 4.81275C5.59852 4.99957 5.2542 5.09297 4.88057 5.09297C4.50694 5.09297 4.16262 4.99957 3.8476 4.81275C3.53258 4.62594 3.28167 4.37502 3.09486 4.06C2.90804 3.74499 2.81464 3.40066 2.81464 3.02704C2.81464 2.65341 2.90804 2.30909 3.09486 1.99407C3.28167 1.67905 3.53258 1.42997 3.8476 1.24682C4.16262 1.06367 4.50694 0.972093 4.88057 0.972093Z" fill="#999999"/>
</g>
<defs>
<clipPath id="clip0_6_468">
<rect width="9.63" height="11" fill="white" transform="matrix(1 0 0 -1 0.0600586 11.2798)"/>
</clipPath>
</defs>
</svg>
