<svg width="31" height="30" viewBox="0 0 31 30" fill="none" xmlns="http://www.w3.org/2000/svg">
<g clip-path="url(#clip0_184_1541)">
<path d="M15.5002 0.5C13.5429 0.5 11.6441 0.883457 9.8559 1.63976C8.12928 2.37 6.57847 3.41549 5.24713 4.74713C3.91579 6.07847 2.8703 7.62928 2.13976 9.3559C1.38346 11.1438 1 13.0425 1 14.9998C1 16.9571 1.38346 18.8559 2.13976 20.6441C2.87 22.3707 3.91549 23.9215 5.24713 25.2529C6.57847 26.5842 8.12928 27.6297 9.8559 28.3602C11.6438 29.1165 13.5429 29.5 15.5002 29.5C17.4575 29.5 19.3562 29.1165 21.1444 28.3602C22.871 27.63 24.4218 26.5845 25.7532 25.2529C27.0845 23.9215 28.13 22.3707 28.8605 20.6441C29.6168 18.8562 30.0003 16.9571 30.0003 14.9998C30.0003 13.0425 29.6168 11.1434 28.8605 9.3556C28.1303 7.62898 27.0848 6.07817 25.7532 4.74683C24.4218 3.41549 22.871 2.37 21.1444 1.63946C19.3562 0.883156 17.4575 0.499697 15.5002 0.499697V0.5ZM15.5002 28.3933C13.6917 28.3933 11.9378 28.0392 10.2869 27.3411C8.69219 26.6667 7.25991 25.7009 6.02951 24.4705C4.79911 23.2401 3.83365 21.8078 3.15888 20.2131C2.46078 18.5622 2.10672 16.8083 2.10672 14.9998C2.10672 13.1914 2.46078 11.4375 3.15888 9.78664C3.83334 8.19188 4.79911 6.7596 6.02951 5.5292C7.25991 4.29881 8.69219 3.33334 10.2869 2.65858C11.9378 1.96047 13.6917 1.60642 15.5002 1.60642C17.3086 1.60642 19.0625 1.96047 20.7134 2.65858C22.3081 3.33304 23.7404 4.29881 24.9708 5.5292C26.2012 6.7596 27.1667 8.19188 27.8414 9.78664C28.5398 11.4375 28.8936 13.1914 28.8936 14.9998C28.8936 16.8083 28.5395 18.5622 27.8414 20.2131C27.167 21.8078 26.2012 23.2401 24.9708 24.4705C23.7404 25.7009 22.3081 26.6664 20.7134 27.3411C19.0625 28.0392 17.3086 28.3933 15.5002 28.3933Z" fill="black"/>
<path d="M21.72 13.7388L12.8447 7.3404C11.8165 6.59895 10.3809 7.33373 10.3809 8.60172V21.3989C10.3809 22.6666 11.8165 23.4014 12.8447 22.6602L21.72 16.2618C22.5806 15.6413 22.5806 14.3599 21.72 13.7394V13.7388Z" fill="black"/>
</g>
<rect x="-0.25" y="0.25" width="29.5" height="29.5" rx="14.75" transform="matrix(1 0 0 -1 1 30)" stroke="black" stroke-width="0.5" stroke-linejoin="round"/>
<defs>
<clipPath id="clip0_184_1541">
<rect width="29" height="29" rx="14.5" transform="matrix(1 0 0 -1 1 29.5)" fill="white"/>
</clipPath>
</defs>
</svg>
