<svg width="75" height="47" viewBox="0 0 75 47" fill="none" xmlns="http://www.w3.org/2000/svg">
<path d="M75 18.248C75 19.8399 74.0453 21.2739 72.5757 21.8893L71.0549 22.5245V31.2629C71.0549 32.3517 70.1732 33.2354 69.0824 33.2354C67.9896 33.2354 67.1098 32.3517 67.1098 31.2629V24.1735L62.5493 26.083V36.1133C62.5493 37.8078 61.4565 39.3207 59.8489 39.8533L39.7526 46.5323C39.3483 46.6664 38.9281 46.7374 38.506 46.7374C38.1273 46.7374 37.7387 46.6822 37.3678 46.5698L15.2596 39.8888C13.5928 39.3818 12.4527 37.8511 12.4527 36.1114V26.081L2.42425 21.8874C0.958656 21.2719 0 19.8379 0 18.248C0 16.6582 0.95471 15.2221 2.42425 14.6087L35.9792 0.574045C36.9477 0.167701 38.0484 0.167701 39.0228 0.574045L72.5757 14.6087C74.0433 15.2202 75 16.6562 75 18.248Z" fill="url(#paint0_linear_131_2355)"/>
<defs>
<linearGradient id="paint0_linear_131_2355" x1="75.625" y1="13.3995" x2="0.33152" y2="13.3919" gradientUnits="userSpaceOnUse">
<stop stop-color="#00893B"/>
<stop offset="1" stop-color="#004165"/>
</linearGradient>
</defs>
</svg>
