<svg width="40" height="46" viewBox="0 0 40 46" fill="none" xmlns="http://www.w3.org/2000/svg">
<path d="M19.7905 0.269287L0 7.80863V11.3435H1.41311V12.4037H38.1679V11.3435H39.581V7.80863L19.7905 0.269287Z" fill="url(#paint0_linear_131_2357)"/>
<path d="M38.1679 37.4937H1.41311V40.3227H0V45.2692H39.581V40.3227H38.1679V37.4937Z" fill="url(#paint1_linear_131_2357)"/>
<path d="M28.9795 33.253V35.3734H36.0478V33.253H35.3406V15.9373H36.0478V13.8169H28.9795V15.9373H29.6867V33.253H28.9795Z" fill="url(#paint2_linear_131_2357)"/>
<path d="M16.2559 33.253V35.3734H23.3242V33.253H22.6183V15.9373H23.3242V13.8169H16.2559V15.9373H16.9631V33.253H16.2559Z" fill="url(#paint3_linear_131_2357)"/>
<path d="M3.5332 33.253V35.3734H10.6015V33.253H9.89429V15.9373H10.6015V13.8169H3.5332V15.9373H4.24046V33.253H3.5332Z" fill="url(#paint4_linear_131_2357)"/>
<defs>
<linearGradient id="paint0_linear_131_2357" x1="39.9109" y1="3.69803" x2="0.17496" y2="3.68997" gradientUnits="userSpaceOnUse">
<stop stop-color="#00893B"/>
<stop offset="1" stop-color="#004165"/>
</linearGradient>
<linearGradient id="paint1_linear_131_2357" x1="39.9109" y1="39.6907" x2="0.174962" y2="39.6782" gradientUnits="userSpaceOnUse">
<stop stop-color="#00893B"/>
<stop offset="1" stop-color="#004165"/>
</linearGradient>
<linearGradient id="paint2_linear_131_2357" x1="36.1067" y1="19.908" x2="29.0107" y2="19.9078" gradientUnits="userSpaceOnUse">
<stop stop-color="#00893B"/>
<stop offset="1" stop-color="#004165"/>
</linearGradient>
<linearGradient id="paint3_linear_131_2357" x1="23.3831" y1="19.908" x2="16.2871" y2="19.9078" gradientUnits="userSpaceOnUse">
<stop stop-color="#00893B"/>
<stop offset="1" stop-color="#004165"/>
</linearGradient>
<linearGradient id="paint4_linear_131_2357" x1="10.6604" y1="19.908" x2="3.56445" y2="19.9078" gradientUnits="userSpaceOnUse">
<stop stop-color="#00893B"/>
<stop offset="1" stop-color="#004165"/>
</linearGradient>
</defs>
</svg>
