<svg width="53" height="54" viewBox="0 0 53 54" fill="none" xmlns="http://www.w3.org/2000/svg">
<g clip-path="url(#clip0_131_2329)">
<path d="M29.7099 8.0048C31.8461 8.0048 33.5785 6.2733 33.5785 4.13705C33.5785 2.0009 31.8461 0.269287 29.7099 0.269287C27.5744 0.269287 25.8428 2.0009 25.8428 4.13705C25.8428 6.2733 27.5744 8.0048 29.7099 8.0048Z" fill="url(#paint0_linear_131_2329)"/>
<path d="M38.5284 43.7453H29.2378V36.9806H19.9509V30.2144H10.6611V23.4482H2.74902V26.206H7.904V32.9722H17.1939V39.7384H26.4808V46.503H35.7713V53.2692H47.6417V50.5122L38.5284 50.5115V43.7453Z" fill="url(#paint1_linear_131_2329)"/>
<path d="M49.4788 19.0308C49.4129 18.5918 49.0038 18.2888 48.564 18.3546L46.7079 18.6337L46.549 17.5783C46.4831 17.149 46.0838 16.855 45.6551 16.9185L45.4606 16.9477C45.4337 16.7682 45.3716 16.5909 45.2691 16.4279L42.5883 12.1412C42.2989 11.679 41.8584 11.3319 41.3408 11.1591L36.4871 8.89577C34.7489 8.08566 32.7173 8.2136 31.0935 9.2353L23.6326 13.9342L19.2659 11.8847C18.5875 11.5048 17.7318 11.7298 17.3287 12.3941L17.2734 12.4838C17.0744 12.8137 17.013 13.2078 17.1058 13.5811C17.1978 13.9544 17.4364 14.2753 17.7671 14.4728L22.9714 17.5783C23.6185 17.965 24.4076 18.0346 25.1128 17.7683L28.1952 16.1078L29.6568 22.0033L24.7988 21.9787C23.9805 21.9764 23.2034 22.3392 22.6813 22.9698C22.1592 23.6004 21.9475 24.4313 22.103 25.2354L23.7373 33.6494C23.9184 34.5813 24.8017 35.2051 25.7405 35.0644L25.8107 35.0541C26.7404 34.9149 27.3995 34.0749 27.3134 33.1392L26.7599 27.1106L34.0907 27.2811C35.1431 27.3051 36.15 26.851 36.8283 26.0455C37.5068 25.2407 37.7827 24.1711 37.5801 23.1373L37.3923 22.1844L35.8844 13.6755L39.7701 14.2492L42.6125 17.5455C42.4449 17.7161 42.3465 17.9493 42.3843 18.2038L42.5432 19.2607L40.6872 19.5397C40.2474 19.6055 39.9452 20.0154 40.0118 20.4552L40.774 25.5264C40.8406 25.9655 41.2498 26.2684 41.6888 26.2025L49.5665 25.0178C50.0056 24.952 50.3078 24.5421 50.2419 24.1022L49.4788 19.0308ZM43.1398 18.1407C43.5878 18.5761 44.2763 18.6583 44.8122 18.3188L44.8436 18.2985C45.0699 18.1557 45.237 17.9552 45.3432 17.7308L45.768 17.6664L45.801 17.6904L45.96 18.7466L43.2911 19.1474L43.1398 18.1407Z" fill="url(#paint2_linear_131_2329)"/>
<path d="M40.7506 40.1058C41.4013 40.7857 42.4762 40.8269 43.1771 40.1978L43.2272 40.1537C43.9258 39.5269 44.0021 38.458 43.4008 37.7362L39.3946 32.3606L38.2742 26.667C38.1874 26.7919 38.0984 26.9153 37.9996 27.0327C37.0468 28.1644 35.6503 28.8136 34.17 28.8136L33.4893 28.7979L34.826 33.1234C35.1715 33.8384 35.621 34.4996 36.1588 35.0867L40.7506 40.1058Z" fill="url(#paint3_linear_131_2329)"/>
</g>
<defs>
<linearGradient id="paint0_linear_131_2329" x1="33.643" y1="2.45506" x2="25.877" y2="2.45457" gradientUnits="userSpaceOnUse">
<stop stop-color="#00893B"/>
<stop offset="1" stop-color="#004165"/>
</linearGradient>
<linearGradient id="paint1_linear_131_2329" x1="48.0158" y1="31.8745" x2="2.94746" y2="31.8703" gradientUnits="userSpaceOnUse">
<stop stop-color="#00893B"/>
<stop offset="1" stop-color="#004165"/>
</linearGradient>
<linearGradient id="paint2_linear_131_2329" x1="50.5275" y1="15.9166" x2="17.2102" y2="15.914" gradientUnits="userSpaceOnUse">
<stop stop-color="#00893B"/>
<stop offset="1" stop-color="#004165"/>
</linearGradient>
<linearGradient id="paint3_linear_131_2329" x1="43.8919" y1="30.6164" x2="33.5349" y2="30.6159" gradientUnits="userSpaceOnUse">
<stop stop-color="#00893B"/>
<stop offset="1" stop-color="#004165"/>
</linearGradient>
<clipPath id="clip0_131_2329">
<rect width="53" height="53" fill="white" transform="translate(0 0.269287)"/>
</clipPath>
</defs>
</svg>
