<svg width="55" height="56" viewBox="0 0 55 56" fill="none" xmlns="http://www.w3.org/2000/svg">
<path d="M48.0234 51.8777H8.49219C6.59297 51.8777 5.05469 50.3377 5.05469 48.4402V27.8152C5.05469 27.8152 14.0283 32.43 22.2422 34.3189V36.4089C22.2422 37.3594 23.0105 38.1277 23.9609 38.1277H32.5547C33.5034 38.1277 34.2734 37.3594 34.2734 36.4089V34.3189C42.4856 32.43 51.4609 27.8152 51.4609 27.8152V48.4402C51.4609 50.3377 49.9209 51.8777 48.0234 51.8777ZM30.8359 31.2527C31.7847 31.2527 32.5547 32.021 32.5547 32.9714V34.6902C32.5547 35.6407 31.7847 36.4089 30.8359 36.4089H25.6797C24.7292 36.4089 23.9609 35.6407 23.9609 34.6902V32.9714C23.9609 32.021 24.7292 31.2527 25.6797 31.2527H30.8359ZM34.2734 31.2527C34.2734 30.3022 33.5034 29.5339 32.5547 29.5339H23.9609C23.0105 29.5339 22.2422 30.3022 22.2422 31.2527V32.7927C14.0283 30.8471 5.05469 26.0964 5.05469 26.0964V19.2214C5.05469 17.3239 6.59297 15.7839 8.49219 15.7839H18.8047V12.3464C18.8047 10.4489 20.3447 8.90894 22.2422 8.90894H34.2734C36.1709 8.90894 37.7109 10.4489 37.7109 12.3464V15.7839H48.0234C49.9209 15.7839 51.4609 17.3239 51.4609 19.2214V26.0964C51.4609 26.0964 42.4856 30.8471 34.2734 32.7927V31.2527ZM34.2734 14.0652C34.2734 13.1147 33.5034 12.3464 32.5547 12.3464H23.9609C23.0105 12.3464 22.2422 13.1147 22.2422 14.0652C22.2422 15.0139 22.2422 15.7839 22.2422 15.7839H34.2734C34.2734 15.7839 34.2734 15.0139 34.2734 14.0652Z" fill="url(#paint0_linear_131_2364)"/>
<defs>
<linearGradient id="paint0_linear_131_2364" x1="51.8477" y1="21.0503" x2="5.25982" y2="21.0472" gradientUnits="userSpaceOnUse">
<stop stop-color="#00893B"/>
<stop offset="1" stop-color="#004165"/>
</linearGradient>
</defs>
</svg>
