<svg width="100" height="101" viewBox="0 0 100 101" fill="none" xmlns="http://www.w3.org/2000/svg">
<g clip-path="url(#clip0_131_1517)">
<path d="M32.5003 65.2693C32.1268 65.2693 31.7534 65.324 31.3971 65.4396C29.3721 66.0974 27.2424 66.5193 25.0003 66.5193C22.7581 66.5193 20.6284 66.0974 18.6018 65.4396C18.2456 65.324 17.8737 65.2693 17.5003 65.2693C7.80338 65.2693 -0.0513101 73.1568 0.000252419 82.8662C0.0221274 86.9693 3.39556 90.2693 7.50025 90.2693H42.5003C46.6049 90.2693 49.9784 86.9693 50.0003 82.8662C50.0518 73.1568 42.1971 65.2693 32.5003 65.2693ZM25.0003 60.2693C33.2846 60.2693 40.0003 53.5537 40.0003 45.2693C40.0003 36.9849 33.2846 30.2693 25.0003 30.2693C16.7159 30.2693 10.0003 36.9849 10.0003 45.2693C10.0003 53.5537 16.7159 60.2693 25.0003 60.2693ZM92.5002 10.2693H32.5003C28.3643 10.2693 25.0003 13.7458 25.0003 18.0177V25.2693C28.6596 25.2693 32.0471 26.3287 35.0003 28.0505V20.2693H90.0002V65.2693H80.0002V55.2693H60.0003V65.2693H48.0878C51.0721 67.8771 53.2628 71.3209 54.2893 75.2693H92.5002C96.6362 75.2693 100 71.7927 100 67.5209V18.0177C100 13.7458 96.6362 10.2693 92.5002 10.2693Z" fill="url(#paint0_linear_131_1517)"/>
</g>
<defs>
<linearGradient id="paint0_linear_131_1517" x1="100.834" y1="32.8743" x2="0.442027" y2="32.8665" gradientUnits="userSpaceOnUse">
<stop stop-color="#00893B"/>
<stop offset="1" stop-color="#004165"/>
</linearGradient>
<clipPath id="clip0_131_1517">
<rect width="100" height="100" fill="white" transform="translate(0 0.269287)"/>
</clipPath>
</defs>
</svg>
