<svg width="100" height="101" viewBox="0 0 100 101" fill="none" xmlns="http://www.w3.org/2000/svg">
<g clip-path="url(#clip0_131_1519)">
<path d="M0 15.421V77.5454C0 80.5771 2.4578 83.035 5.48959 83.035H66.5931V72.1381C65.4774 70.8484 64.5772 69.4023 63.91 67.8252C63.0578 65.8103 62.6261 63.6723 62.6261 61.4699C62.6261 59.2675 63.058 57.1295 63.91 55.1146C64.7323 53.1703 65.909 51.4252 67.4072 49.9267C68.9054 48.4286 70.6508 47.2521 72.5951 46.4296C74.61 45.5774 76.748 45.1454 78.9504 45.1454C81.1528 45.1454 83.2908 45.5775 85.3057 46.4296C87.25 47.252 88.9952 48.4285 90.4936 49.9267C91.9918 51.4249 93.1682 53.1703 93.9908 55.1146C94.843 57.1295 95.275 59.2675 95.275 61.4699C95.275 63.6723 94.8427 65.8103 93.9908 67.8252C93.3237 69.4023 92.4235 70.8484 91.3077 72.1381V83.035H94.5106C97.5422 83.035 100 80.5771 100 77.5454V35.4232H81.0953C77.4629 35.4232 74.5077 32.4681 74.5077 28.8357V9.9314H5.48959C2.45769 9.9314 0 12.3892 0 15.421ZM12.1896 27.1594H67.0176V33.1979H12.1896V27.1594ZM12.1896 48.7609H58.6735V52.0547H12.1896V48.7609ZM12.1896 59.0814H39.6036V62.3751H12.1896V59.0814Z" fill="url(#paint0_linear_131_1519)"/>
<path d="M77.8018 10.447V28.8357C77.8018 30.6547 79.2765 32.1295 81.0955 32.1295H99.4865H100L77.8018 9.93042V10.447Z" fill="url(#paint1_linear_131_1519)"/>
<path d="M88.0136 83.0349V75.0498C87.1623 75.6189 86.2579 76.1072 85.3055 76.51C83.2906 77.3621 81.1526 77.7943 78.9502 77.7943C76.7478 77.7943 74.6097 77.3621 72.5948 76.51C71.6425 76.1072 70.738 75.6187 69.8867 75.0498V83.0349V90.6082L78.9499 86.9981L88.0134 90.6082V83.0349H88.0136Z" fill="url(#paint2_linear_131_1519)"/>
<path d="M89.6608 68.8925C90.3549 67.8928 90.9131 66.7913 91.3076 65.6147C91.7442 64.3128 91.9811 62.9189 91.9811 61.4698C91.9811 54.2732 86.147 48.4392 78.9505 48.4392C71.7539 48.4392 65.9199 54.2733 65.9199 61.47C65.9199 62.9189 66.1569 64.3128 66.5933 65.6148C66.9879 66.7915 67.546 67.8927 68.2402 68.8926C68.7257 69.5916 69.2776 70.2409 69.887 70.8313C72.2323 73.1023 75.4279 74.5007 78.9505 74.5007C82.473 74.5007 85.6685 73.1024 88.0139 70.8313C88.6232 70.2408 89.1753 69.5915 89.6608 68.8925Z" fill="url(#paint3_linear_131_1519)"/>
</g>
<defs>
<linearGradient id="paint0_linear_131_1519" x1="100.834" y1="30.5878" x2="0.442027" y2="30.5792" gradientUnits="userSpaceOnUse">
<stop stop-color="#00893B"/>
<stop offset="1" stop-color="#004165"/>
</linearGradient>
<linearGradient id="paint1_linear_131_1519" x1="100.185" y1="16.203" x2="77.8999" y2="16.2017" gradientUnits="userSpaceOnUse">
<stop stop-color="#00893B"/>
<stop offset="1" stop-color="#004165"/>
</linearGradient>
<linearGradient id="paint2_linear_131_1519" x1="88.1646" y1="79.446" x2="69.9668" y2="79.4447" gradientUnits="userSpaceOnUse">
<stop stop-color="#00893B"/>
<stop offset="1" stop-color="#004165"/>
</linearGradient>
<linearGradient id="paint3_linear_131_1519" x1="92.1983" y1="55.8032" x2="66.0351" y2="55.8016" gradientUnits="userSpaceOnUse">
<stop stop-color="#00893B"/>
<stop offset="1" stop-color="#004165"/>
</linearGradient>
<clipPath id="clip0_131_1519">
<rect width="100" height="100" fill="white" transform="translate(0 0.269287)"/>
</clipPath>
</defs>
</svg>
