<svg width="100" height="101" viewBox="0 0 100 101" fill="none" xmlns="http://www.w3.org/2000/svg">
<path d="M8.33301 79.4359C8.33301 86.5192 13.7497 91.9359 20.833 91.9359H79.1663C86.2497 91.9359 91.6663 86.5192 91.6663 79.4359V46.1025H8.33301V79.4359ZM79.1663 16.9359H70.833V12.7692C70.833 10.2692 69.1663 8.60254 66.6663 8.60254C64.1663 8.60254 62.4997 10.2692 62.4997 12.7692V16.9359H37.4997V12.7692C37.4997 10.2692 35.833 8.60254 33.333 8.60254C30.833 8.60254 29.1663 10.2692 29.1663 12.7692V16.9359H20.833C13.7497 16.9359 8.33301 22.3525 8.33301 29.4359V37.7692H91.6663V29.4359C91.6663 22.3525 86.2497 16.9359 79.1663 16.9359Z" fill="url(#paint0_linear_131_1527)"/>
<defs>
<linearGradient id="paint0_linear_131_1527" x1="92.3608" y1="32.1494" x2="8.70136" y2="32.1442" gradientUnits="userSpaceOnUse">
<stop stop-color="#00893B"/>
<stop offset="1" stop-color="#004165"/>
</linearGradient>
</defs>
</svg>
