<svg width="100" height="101" viewBox="0 0 100 101" fill="none" xmlns="http://www.w3.org/2000/svg">
<path d="M87.3164 85.012H15.4414C11.9883 85.012 9.19141 82.212 9.19141 78.762V41.262C9.19141 41.262 25.507 49.6526 40.4414 53.087V56.887C40.4414 58.6151 41.8383 60.012 43.5664 60.012H59.1914C60.9164 60.012 62.3164 58.6151 62.3164 56.887V53.087C77.2477 49.6526 93.5664 41.262 93.5664 41.262V78.762C93.5664 82.212 90.7664 85.012 87.3164 85.012ZM56.0664 47.512C57.7914 47.512 59.1914 48.9088 59.1914 50.637V53.762C59.1914 55.4901 57.7914 56.887 56.0664 56.887H46.6914C44.9633 56.887 43.5664 55.4901 43.5664 53.762V50.637C43.5664 48.9088 44.9633 47.512 46.6914 47.512H56.0664ZM62.3164 47.512C62.3164 45.7838 60.9164 44.387 59.1914 44.387H43.5664C41.8383 44.387 40.4414 45.7838 40.4414 47.512V50.312C25.507 46.7745 9.19141 38.137 9.19141 38.137V25.637C9.19141 22.187 11.9883 19.387 15.4414 19.387H34.1914V13.137C34.1914 9.68696 36.9914 6.88696 40.4414 6.88696H62.3164C65.7664 6.88696 68.5664 9.68696 68.5664 13.137V19.387H87.3164C90.7664 19.387 93.5664 22.187 93.5664 25.637V38.137C93.5664 38.137 77.2477 46.7745 62.3164 50.312V47.512ZM62.3164 16.262C62.3164 14.5338 60.9164 13.137 59.1914 13.137H43.5664C41.8383 13.137 40.4414 14.5338 40.4414 16.262C40.4414 17.987 40.4414 19.387 40.4414 19.387H62.3164C62.3164 19.387 62.3164 17.987 62.3164 16.262Z" fill="url(#paint0_linear_131_1503)"/>
<defs>
<linearGradient id="paint0_linear_131_1503" x1="94.2695" y1="28.9622" x2="9.56437" y2="28.9565" gradientUnits="userSpaceOnUse">
<stop stop-color="#00893B"/>
<stop offset="1" stop-color="#004165"/>
</linearGradient>
</defs>
</svg>
